<?xml version="1.0" encoding="UTF-8" standalone="no"?>
<svg
   xmlns:dc="http://purl.org/dc/elements/1.1/"
   xmlns:cc="http://creativecommons.org/ns#"
   xmlns:rdf="http://www.w3.org/1999/02/22-rdf-syntax-ns#"
   xmlns:svg="http://www.w3.org/2000/svg"
   xmlns="http://www.w3.org/2000/svg"
   height="92"
   width="92"
   id="svg8"
   xml:space="preserve"
   viewBox="0 0 92 92"
   y="0px"
   x="0px"
   version="1.1"><metadata
     id="metadata14"><rdf:RDF><cc:Work
         rdf:about=""><dc:format>image/svg+xml</dc:format><dc:type
           rdf:resource="http://purl.org/dc/dcmitype/StillImage" /><dc:title></dc:title></cc:Work></rdf:RDF></metadata><defs
     id="defs12" /><path
     style="fill:#f5f5f5;fill-opacity:1"
     id="path2"
     d="m 82.115624,39.957594 h -2.4 c -1.2,-4.7 -3.9,-8.8 -7.7,-12.1 2.5,-3.3 2.7,-11 2.7,-11 0,0 -8.6,0.2 -11.5,3.1 -0.6,0.6 -1,1.2 -1.4,1.8 -4,-1.5 -8.5,-2.3 -13.3,-2.3 -14.1,0 -26.1,7.3 -30.3,17.5 -1.5,-0.3 -3,-1.4 -4,-2.9 -0.4,-0.6 -0.7,-1.3 -0.8,-1.9 0.8,0.1 1.6,0 2.4,-0.2 0.9,-0.3 1.8,-0.7 2.5,-1.5 0.6,-0.7 1.1,-1.6 1.1,-2.5 0.1,-0.8 -0.2,-1.7 -0.8,-2.3 -1.2,-1.2 -3.5,-1 -5,0.5 -0.4,0.4 -0.7,0.9 -1,1.4 -0.3,0.5 -0.5,1 -0.6,1.5 -0.1,0.5 -0.2,1 -0.2,1.5 -0.4,-0.1 -0.8,-0.3 -1.2,-0.6 -2.1999999,-1.3 -3.3999999,-3.5 -3.1999999,-5.4 0,-0.3 -0.1,-0.5 -0.3,-0.6 -0.4,-0.2 -0.9,0 -1,0.5 -0.4,2.4 1.1,5.2 3.8,6.7 0.5999999,0.4 1.2999999,0.6 1.9999999,0.8 0.2,1 0.6,2 1.1,2.9 1.2,1.9 2.9,3.1 4.6,3.5 -0.7,2.2 -1.1,4.4 -1.1,6.8 0,5.9 2.5,11.4 6.7,15.7 l -1.3,3.6 c -1.2,3.3 0.5,6.9 3.8,8.1 l 6,2.2 c 3.3,1.2 6.9,-0.5 8.1,-3.8 l 0.4,-1.2 c 2.6,0.5 5.3,0.8 8.1,0.8 2.4,0 4.7,-0.2 6.9,-0.6 l 0.3,1 c 1.2,3.3 4.8,5 8.1,3.8 l 6,-2.2 c 3.3,-1.2 5,-4.8 3.8,-8.1 l -1,-2.7 c 2,-1.9 3.7,-4 5,-6.4 h 4.4 c 2.3,0 4.1,-1.9 4.1,-4.2 v -7 c 0.3,-2.4 -1.5,-4.2 -3.8,-4.2 z m -68.7,-10.8 c 0.2,-0.5 0.4,-1 0.7,-1.5 0.3,-0.5 0.8,-1 1.3,-1.2 0.7,-0.4 1.7,-0.5 2.4,0.1 0.3,0.4 0.4,0.9 0.4,1.4 -0.1,0.5 -0.2,0.9 -0.5,1.3 -0.3,0.5 -0.8,0.8 -1.3,1.1 -0.3,0.1 -0.6,0.3 -0.9,0.4 -0.7,0.2 -1.5,0.2 -2.3,0.1 0,-0.6 0,-1.1 0.2,-1.7 z m 35.9,16.8 c 2.3,0.9 3.9,1.8 4.9,2.7 1.1,1.1 1.7,2.4 1.7,4 0,1.5 -0.6,2.9 -1.8,4 -0.9,0.9 -2.3,1.5 -3.3,1.9 v 3.4 h -6.3 v -3.2 c -1.9,-0.3 -3.2,-0.9 -4.4,-1.8 l -1.2,-0.8 3,-4.6 1.6,1.1 c 1.1,0.7 2.3,1.1 3.8,1.1 0.8,0 1.5,-0.1 1.9,-0.4 0.3,-0.2 0.4,-0.4 0.4,-0.8 0,-0.6 -1,-1.3 -2.7,-1.9 -4.6,-1.7 -7,-3.9 -7,-6.5 0,-1.5 0.5,-2.9 1.7,-4 0.8,-0.8 2,-1.4 3,-1.8 v -3.2 h 6.3 v 3.1 c 1.5,0.3 2.5,0.7 3.6,1.2 l 1.7,0.8 -3.4,4.8 -1.6,-0.9 c -0.7,-0.5 -1.8,-0.8 -3.2,-0.8 -0.7,0 -1.2,0.1 -1.5,0.3 -0.2,0.2 -0.3,0.3 -0.3,0.5 0.1,0.1 0.5,0.8 3.1,1.8 z m 7.2,-19.6 c 0,1.6 -1.4,2.8 -3,2.5 -1.6,-0.3 -3.3,-0.4 -5,-0.4 -4.7,0 -9.1,1 -12.9,2.9 -1.7,0.9 -3.7,-0.4 -3.7,-2.3 0,-1 0.6,-1.9 1.4,-2.3 4.5,-2.2 9.7,-3.4 15.2,-3.4 2,0 3.9,0.2 5.8,0.5 1.2,0.2 2.2,1.2 2.2,2.5 z m 12.9,14.2 c -1.4,0 -2.5,-1.7 -2.5,-3.8 0,-2.1 1.1,-3.8 2.5,-3.8 1.4,0 2.5,1.7 2.5,3.8 0.1,2.1 -1.1,3.8 -2.5,3.8 z" /></svg>