<svg version="1" xmlns="http://www.w3.org/2000/svg" width="933.333" height="933.333" viewBox="0 0 700.000000 700.000000"><path d="M561.8 128.5c-.2.2-4.3.6-9.2.9-11.2.9-30 4.1-39.1 6.7-21.8 6.4-30.5 11.7-39.6 24.3-1.8 2.5-3.7 4.6-4.3 4.6-.6 0-3.1-.7-5.6-1.6-12.7-4.5-36.2-10.3-48-11.9-20.8-2.7-29.8-3.2-51.5-2.9-11.5.1-22.1.5-23.5.8-1.4.3-5 .7-8 1-3 .3-6.6.7-8 1-1.4.2-4.3.6-6.5 1-6.1.8-28 6.1-37.5 9-16.2 4.9-40 15.2-53.7 23.2-28.7 16.9-54.1 39.8-70.1 63.1-6.6 9.7-6.6 9.6-12.8 21.8-3.1 6-5.8 11.2-5.9 11.3-.2.2-2.1-.2-4.2-.9-13-4.2-27.7-19.4-31.4-32.1-.7-2.7-.7-2.8 3.5-2.8 22.7 0 41-15.2 41-34 .1-13-8.3-21.3-21.3-21.3-11.4 0-20.3 5.2-27.4 16.2-5.4 8.2-6.5 11-8.1 20l-1.1 7.1-6.5-3.7c-8.5-5-18.8-15.3-22.2-22.3-3.4-7.2-3.9-8.9-4.2-16-.4-6.8-1.8-9.2-5.5-8.8-8.1.9-5.7 22.7 4 36.3 7.9 11.1 19.4 19.6 31.5 23.4 3.8 1.2 4.2 1.7 5.4 6.3 2.6 10.2 8.8 20.8 16.9 28.8 7.2 7.1 18.3 14 22.5 14 2.4 0 2.6 1.3 1 6.6-.8 2.7-1.6 5.8-1.8 6.9-.3 1.1-.9 4-1.5 6.5-.5 2.5-1.3 6.7-1.6 9.5-.4 2.7-.8 6.1-1.1 7.5-.6 3.5-.5 25.5.1 31.4 2.4 23.3 11.4 49.8 23.2 68.4 1.8 2.9 3.3 5.5 3.3 5.8 0 .2.5 1 1 1.7.6.7 3.9 5 7.5 9.7 3.6 4.7 8.4 10.7 10.7 13.3l4.2 4.8-2.1 6.2c-1.2 3.4-3.8 10.9-5.9 16.7-3.2 8.9-3.8 11.9-4 19.8-.4 14.6 4.5 26.2 14.9 35.8 7.4 6.9 8.7 7.5 34.8 17.2 31.4 11.7 33.9 12.5 43.3 12.5 21.4.1 37.9-11.9 46.1-33.4l2.8-7.1 3.6.6c2 .3 4.5.8 5.6 1 1.7.3 8.7 1.4 14.5 2.1 24.2 3.3 74.3 2.1 88.2-2.1 1.1-.3 1.9.3 2.4 1.8.4 1.3.6 2.4.5 2.6-.8 1.2 9 16.9 13 21 11.1 11 28.5 16.1 43.4 12.7 4.9-1.1 33.8-11.3 40.2-14.1 1.7-.8 3.6-1.4 4.3-1.4.6 0 5.3-2 10.4-4.4 15.7-7.5 25.2-19.4 28.2-35 .6-3.2.7-15 .1-17.6-1.1-4.5-2.4-8.5-5.9-17.9l-3.9-10.3 5.8-5.8c10.2-10 19.7-22.1 27.4-34.8l5-8.2h19.4c17.4 0 19.9-.2 24.9-2.2 6.2-2.3 13.3-8.5 16.1-13.7 3.9-7.7 4.2-10.6 4-46.1-.1-38.5-.1-38.2-7.2-45.8-4-4.3-11.4-8.1-16.6-8.7-1.8-.2-7.7-.4-13.2-.4l-10-.1-3.6-11.4c-4.4-13.6-11.9-28.8-20.1-41.1-8.1-11.9-12.3-17-24.3-29.3-5.5-5.7-9.9-10.7-9.8-11.2.1-.4 1.3-2.4 2.6-4.3 2.1-3.1 8.3-18.7 9.1-22.8.1-.8.8-3.2 1.4-5.4 2.6-9.3 5.8-32.1 6.6-48 .1-1.5-.6-2-3.1-2.1-1.8-.1-3.4 0-3.5.1zM384 178.4c6.4.3 12.2.7 13 1 .8.2 4.4.7 8 1.1 8.5.8 10.8 1.4 15.2 3.8 10.4 5.7 12.7 20.7 4.5 29.6-4.8 5.2-13 6.9-23.3 4.7-4.6-1-17.6-1.8-30.4-1.8-33.6-.2-62.5 5.4-90.8 17.8-7 3-14.3 5.7-16.2 5.9-10.7 1.2-21.1-8.4-20.9-19.2.1-8.3 4.5-14.5 13-18.8 7.5-3.8 28.8-12 36.9-14.1 9.9-2.6 22.1-5.5 25-5.9 2-.3 4.5-.7 5.7-.9 1.2-.3 4.3-.7 7-1.1 2.6-.4 5.9-.9 7.3-1.1 1.4-.2 8.4-.7 15.5-1 7.2-.4 13.1-.8 13.3-.9.2-.2 1.5-.1 3 0 1.5.2 7.9.6 14.2.9zm-251.1 22.1c5.4 2.8 7 11.9 3.3 19.1-2.5 4.9-6.2 8.4-12.7 12-4.4 2.5-6 2.8-14 2.9-10.3 0-10 .4-7.8-9.8 1.5-6.9 5.1-14 9.2-18.5 5.9-6.3 15.9-8.9 22-5.7zm402 52.6c7.5 4.6 11.1 12.3 11.8 25.4.4 7.7.2 9.9-1.8 15-9.5 25.4-34.9 16.1-35.3-13-.1-9.3 1.4-15.4 5.3-21 5.5-8.2 13.1-10.6 20-6.4zM387.1 268c0 .3.2 5.6.2 11.9.2 9.3.5 11.5 1.7 11.7 5.7 1.1 7.9 1.8 14.8 4.3 4.2 1.6 11.3 4.5 15.8 6.6l8.1 3.8-13 18.3-12.9 18.3-5.2-3c-12.5-7.5-17.5-9.1-28.1-9.5-8.7-.3-10.4-.1-13.3 1.6-2.1 1.3-3.2 2.7-3 3.8.5 2.6 10 8.3 23.3 14 31.9 13.5 42.4 22 48 38.7 2 5.7 2 17.5.1 23.7-3.7 12-13 21.8-27.1 28.7-5 2.4-9.2 4.6-9.4 4.8-.3.2-.5 6.1-.5 13l-.1 12.7-23.8.1c-20.4 0-23.7-.2-23.8-1.5v-12.2l.1-10.6-5.2-1.2c-11.3-2.4-16.9-4.9-29.5-13.2l-8.3-5.4 7.8-12c4.3-6.5 9.3-14.3 11.2-17.2 1.8-2.8 3.8-5.2 4.4-5.2.6 0 3.4 1.8 6.2 3.9 11.5 8.7 24.9 12.8 38.4 11.7 8.9-.7 13-3.2 13-8 0-5.7-6.5-10.1-25.7-17.5-9.3-3.6-20.9-9.9-27.5-14.9-14.2-10.7-19.1-18.8-19.5-32-.5-17.6 8.4-30.8 27.2-40.6l8-4.2-.1-11.4c0-6.3.3-11.7.7-12 1-.7 46.9-.7 47 0z"/></svg>